Coordinates
version=1
nRows=22
nColumns=24
inDegrees=yes

Units are S.I. units (second, meters, Newtons, ...)
Angles are in degrees.

endheader
time	pelvis_tilt	pelvis_list	pelvis_rotation	pelvis_tx	pelvis_ty	pelvis_tz	hip_flexion_r	hip_adduction_r	hip_rotation_r	knee_angle_r	ankle_angle_r	subtalar_angle_r	mtp_angle_r	hip_flexion_l	hip_adduction_l	hip_rotation_l	knee_angle_l	ankle_angle_l	subtalar_angle_l	mtp_angle_l	lumbar_extension	lumbar_bending	lumbar_rotation
      1.39566667	      1.45130432	      4.51647280	     -3.70989705	      0.28005449	      1.01619215	      0.28224834	     13.47145520	     -7.96758128	     -3.20949358	    -69.25239954	     -6.76314505	    -15.85313518	      3.69617127	      5.52963922	      9.30302010	      4.48274869	    -12.02208611	      3.15177402	    -16.67343028	     -1.68300775	    -13.72292380	      1.13261610	     -1.99110115
      1.39983333	      1.44026062	      4.30468261	     -3.72952515	      0.28489481	      1.01714269	      0.28194978	     14.02733901	     -7.69094242	     -3.26201325	    -68.95173997	     -6.16610747	    -16.15268993	      3.66069323	      4.99672559	      9.10074351	      4.51775390	    -11.55800273	      3.13586447	    -16.65017857	     -1.69529097	    -13.73717054	      1.44929826	     -2.13248921
      1.40400000	      1.47559399	      4.08223704	     -3.73861350	      0.28975138	      1.01813658	      0.28163855	     14.50791844	     -7.40691614	     -3.33256435	    -68.57950128	     -5.65003711	    -16.43328010	      3.57179195	      4.38626951	      8.89319416	      4.61821194	    -11.04061071	      3.10721902	    -16.69610120	     -1.72347925	    -13.77918028	      1.77940063	     -2.43893658
      1.40816667	      1.48390293	      3.87464352	     -3.74952142	      0.29457105	      1.01901418	      0.28133288	     15.01618028	     -7.13192251	     -3.39153277	    -68.17631713	     -5.09364611	    -16.69148532	      3.48212279	      3.82675474	      8.69741053	      4.67814978	    -10.55919849	      3.08049249	    -16.70968600	     -1.75363936	    -13.80886916	      2.09812659	     -2.64602780
      1.41233333	      1.49094346	      3.66161382	     -3.75272519	      0.29939062	      1.01987713	      0.28103293	     15.50514855	     -6.84767663	     -3.46146782	    -67.70798590	     -4.56230275	    -16.94496844	      3.38312832	      3.27035233	      8.49393964	      4.73200660	    -10.08141058	      3.05655812	    -16.71428780	     -1.78702396	    -13.82993139	      2.40551993	     -2.85549815
      1.41650000	      1.49664084	      3.45910041	     -3.75280942	      0.30420591	      1.02068407	      0.28072578	     15.98332809	     -6.57353037	     -3.52773616	    -67.19376321	     -4.03477515	    -17.18023083	      3.27406270	      2.71797869	      8.30118252	      4.78302671	     -9.60617739	      3.03329303	    -16.71212056	     -1.82459632	    -13.85036605	      2.70694126	     -3.06127254
      1.42066667	      1.48996727	      3.24599841	     -3.74272628	      0.30900956	      1.02143442	      0.28041914	     16.45574315	     -6.28318504	     -3.60198278	    -66.62183157	     -3.52363471	    -17.39980067	      3.14909059	      2.18716029	      8.09487058	      4.83064773	     -9.14796469	      3.02004366	    -16.70023524	     -1.86698154	    -13.86037016	      3.02397760	     -3.27262856
      1.42483333	      1.44997282	      3.05574491	     -3.73607671	      0.31379429	      1.02206666	      0.28012608	     16.96271346	     -6.01390354	     -3.66726704	    -66.02326305	     -2.97695359	    -17.59555336	      3.09483834	      1.71487117	      7.90817993	      4.83024123	     -8.72950211	      3.00603174	    -16.64847049	     -1.88756890	    -13.84122445	      3.30095990	     -3.37506470
      1.42900000	      1.48189234	      2.85563079	     -3.72684052	      0.31859358	      1.02277628	      0.27982847	     17.36428684	     -5.73886753	     -3.73705989	    -65.34904259	     -2.52581666	    -17.74769853	      2.96302448	      1.13682925	      7.71637426	      4.88197667	     -8.25335046	      3.01323230	    -16.63537377	     -1.93219512	    -13.88711490	      3.61767524	     -3.65341950
      1.43316667	      1.45321012	      2.69143016	     -3.71617527	      0.32336170	      1.02332609	      0.27953442	     17.83446263	     -5.49424759	     -3.78969694	    -64.66030325	     -1.99661971	    -17.87698480	      2.04287746	      0.63572174	      7.56211942	      4.95544064	     -7.78747209	      2.90893933	    -16.76431461	     -2.22960942	    -13.85901432	      3.88883843	     -3.99693892
      1.43733333	      1.43353622	      2.49748470	     -3.68460106	      0.32814115	      1.02386921	      0.27923214	     18.26052295	     -5.22260710	     -3.87375907	    -63.89387379	     -1.51332431	    -17.99006995	      1.99368717	      0.15515491	      7.36817718	      4.94534030	     -7.39587641	      2.95451742	    -16.63974585	     -2.24536017	    -13.86434034	      4.15981755	     -4.02173735
      1.44150000	      1.42839885	      2.32158654	     -3.66958084	      0.33290730	      1.02436510	      0.27897092	     18.66409560	     -4.96343029	     -3.93123481	    -63.08807990	     -1.06103622	    -18.07266733	      1.93322465	     -0.34404431	      7.19260188	      4.92010768	     -6.98812439	      2.98396211	    -16.54996258	     -2.26482981	    -13.87603140	      4.40955245	     -4.16598260
      1.44566667	      1.43034389	      2.15487661	     -3.65017978	      0.33767493	      1.02482216	      0.27869401	     19.04524802	     -4.71732002	     -3.98912642	    -62.23942556	     -0.61417633	    -18.13876191	      1.87322586	     -0.85034639	      7.02907871	      4.90716260	     -6.57967472	      2.99871603	    -16.47425614	     -2.28413355	    -13.90208601	      4.66910178	     -4.33031602
      1.44983333	      1.44625556	      2.02137207	     -3.62675479	      0.34243290	      1.02521953	      0.27841558	     19.40510336	     -4.51300338	     -4.04609899	    -61.35920445	     -0.20656660	    -18.16200002	      1.73322487	     -1.37917297	      6.90291967	      4.94108356	     -6.15110158	      3.02679601	    -16.42234975	     -2.32540170	    -13.93611518	      4.89746471	     -4.62155078
      1.45400000	      1.44536745	      1.86857691	     -3.60513885	      0.34720414	      1.02557749	      0.27815827	     19.75690568	     -4.28078276	     -4.10009929	    -60.41659181	      0.19272542	    -18.16683837	      1.61985787	     -1.87879362	      6.75223615	      4.93210891	     -5.74624678	      3.04454980	    -16.37148964	     -2.35911376	    -13.94978985	      5.13792170	     -4.78076716
      1.45816667	      1.43397248	      1.73131453	     -3.57792228	      0.35196947	      1.02586080	      0.27791276	     20.10590773	     -4.06393854	     -4.15062336	    -59.43186589	      0.57456204	    -18.15931041	      1.50090200	     -2.35996251	      6.61610093	      4.93565353	     -5.35483812	      3.06094875	    -16.32354195	     -2.39366892	    -13.95115418	      5.35716037	     -4.96416144
      1.46233333	      1.43359488	      1.61328299	     -3.54804567	      0.35671999	      1.02609846	      0.27767284	     20.43108839	     -3.86825130	     -4.19495756	    -58.41110815	      0.95376579	    -18.13707351	      1.35746609	     -2.84927585	      6.50086060	      4.94797847	     -4.96594286	      3.06598717	    -16.27578618	     -2.43508325	    -13.97407555	      5.54932048	     -5.15879758
      1.46650000	      1.40363676	      1.50527914	     -3.52245499	      0.36148849	      1.02623127	      0.27743284	     20.77455246	     -3.68467110	     -4.23818649	    -57.35106966	      1.28720247	    -18.07746665	      1.25098027	     -3.30327808	      6.39528443	      4.94413539	     -4.58385834	      3.09460178	    -16.23726837	     -2.46534209	    -13.94695708	      5.73247020	     -5.31153495
      1.47066667	      1.38866370	      1.38653888	     -3.48946679	      0.36625248	      1.02637976	      0.27721892	     21.07058392	     -3.48288138	     -4.27694370	    -56.22292481	      1.61966038	    -18.03222230	      1.19032747	     -3.76222617	      6.27587691	      4.92796773	     -4.22651180	      3.09457234	    -16.17958433	     -2.48366624	    -13.94917718	      5.91429868	     -5.42872566
      1.47483333	      1.42767917	      1.30230789	     -3.46494340	      0.37101609	      1.02650227	      0.27700737	     21.30459360	     -3.32768209	     -4.30936725	    -55.07343810	      1.89347474	    -17.97143642	      1.07497129	     -4.30294630	      6.19773607	      4.96235000	     -3.81654836	      3.12293852	    -16.14710945	     -2.51548729	    -14.01456949	      6.07229924	     -5.66021427
      1.47900000	      1.37817430	      1.21474167	     -3.43346499	      0.37578929	      1.02647154	      0.27681569	     21.61085930	     -3.15760752	     -4.33796388	    -53.87249131	      2.16852772	    -17.90778094	      1.02077682	     -4.71974519	      6.10865206	      4.95278448	     -3.46761729	      3.13333521	    -16.10167540	     -2.53140779	    -13.96760550	      6.22086684	     -5.76054829
      1.48316667	      1.37654898	      1.12541761	     -3.40463901	      0.38056675	      1.02647135	      0.27663050	     21.83964385	     -2.98913545	     -4.36638536	    -52.61379987	      2.39701833	    -17.84263031	      0.96068452	     -5.20006586	      6.02024090	      4.96076945	     -3.09498919	      3.15142481	    -16.05903175	     -2.54836271	    -13.97775242	      6.37803449	     -5.91556623
